# xmcd
#
# Track frame offsets:
#  150
#  20812
#  48187
#  70311
#  93901
#  113848
#  131036
#
# Disc length: 1923 seconds
#
# Revision: 0
# Processed by: cddbd v1.4PL0 Copyright (c) Steve Scherf et al.
# Submitted via: AltoMP3_Maker 3.0
#
DISCID=5c078107
DTITLE=Texas Blues - On The Madison Way
DYEAR=1900
DGENRE=
TTITLE0=Cowboy song
TTITLE1=What Happens Outside
TTITLE2=On the Madison Way
TTITLE3=In Museum
TTITLE4=Hate of Love
TTITLE5=My Little Baby
TTITLE6=From four until late (R.Johnson)
EXTD=
EXTT0=
EXTT1=
EXTT2=
EXTT3=
EXTT4=
EXTT5=
EXTT6=
PLAYORDER=
